<svg width="62" height="64" viewBox="0 0 62 64" fill="none" xmlns="http://www.w3.org/2000/svg">
<path d="M42.1329 29.4761L50.5462 21.0628C50.641 20.968 50.7686 20.8862 50.9286 20.8552C51.0872 20.8244 51.2346 20.8519 51.3568 20.9029C51.4787 20.9529 51.6018 21.0373 51.6921 21.17C51.7836 21.3044 51.8171 21.4526 51.8171 21.5883V39.1587L60.2303 30.7454C60.3252 30.6506 60.4528 30.5688 60.6128 30.5378C60.7723 30.5069 60.9206 30.5348 61.0432 30.5864M42.1329 29.4761L60.8496 31.0474M42.1329 29.4761V11.9057C42.1329 11.8929 42.1324 11.8801 42.1315 11.8674C42.1217 11.7401 42.0815 11.6034 41.9913 11.4808C41.9012 11.3583 41.7823 11.2787 41.6609 11.2318C41.5433 11.1858 41.4037 11.1621 41.2541 11.1897C41.1035 11.2174 40.9809 11.2902 40.8871 11.3761C40.8817 11.381 40.8765 11.386 40.8714 11.3912L32.4581 19.8044V2.23406L32.4579 2.21935C32.4541 2.08982 32.42 1.94772 32.3316 1.81783C32.2429 1.68757 32.1225 1.60331 32.0014 1.55254L31.9988 1.55145C31.8792 1.5021 31.7347 1.47467 31.5785 1.50325C31.4217 1.53195 31.295 1.60951 31.1993 1.70126L31.1993 1.70118L31.1918 1.70862L0.716776 32.1962L0.716701 32.1961L0.709559 32.2035C0.617955 32.299 0.540401 32.4256 0.511621 32.5821C0.483093 32.7373 0.509928 32.8815 0.559756 33.0015C0.609822 33.1228 0.693853 33.2453 0.826132 33.3354C0.958485 33.4255 1.10346 33.4588 1.235 33.4607L1.235 33.4608H1.24236H18.8028L10.3995 41.874C10.3045 41.969 10.2234 42.096 10.192 42.2544C10.1607 42.4123 10.1871 42.5595 10.2366 42.6815L10.2366 42.6815L10.2392 42.6877C10.2905 42.8093 10.3761 42.9323 10.5104 43.0219C10.6451 43.1116 10.792 43.1434 10.925 43.1434H28.4819L20.0756 51.5568L20.0723 51.5602C19.9808 51.6535 19.9 51.7789 19.8684 51.9372C19.8369 52.0957 19.8637 52.2427 19.913 52.3641L19.9129 52.3641L19.9155 52.3703C19.9658 52.4895 20.05 52.6132 20.1852 52.7038C20.3209 52.7948 20.4687 52.826 20.6013 52.826H38.1613L29.7536 61.2393L29.7535 61.2393L29.7466 61.2465C29.6585 61.3383 29.5785 61.4623 29.5471 61.6198C29.5157 61.7777 29.5419 61.9255 29.5937 62.0498C29.6443 62.1729 29.7297 62.2965 29.8639 62.3864C29.999 62.477 30.1466 62.5086 30.2792 62.5086H60.7558C60.9519 62.5086 61.138 62.4351 61.2813 62.2918L60.9278 61.9382L61.2813 62.2918C61.4233 62.1499 61.4997 61.9666 61.4997 61.7647V31.2899M42.1329 29.4761L60.9997 31.7532M61.0432 30.5864C61.0435 30.5865 61.0437 30.5866 61.044 30.5867L60.8496 31.0474M61.0432 30.5864C61.0429 30.5863 61.0427 30.5862 61.0424 30.5861L60.8496 31.0474M61.0432 30.5864C61.168 30.6387 61.296 30.7273 61.3868 30.8693C61.4753 31.0075 61.5032 31.1566 61.4997 31.2899M60.8496 31.0474C60.9544 31.0912 61.0044 31.1693 60.9997 31.2819M61.4997 31.2899V31.2819H60.9997M61.4997 31.2899C61.4996 31.2942 61.4994 31.2985 61.4993 31.3027L60.9997 31.2819M60.9997 31.2819V31.7532M60.9997 31.7532V31.8634V61.5162V61.6268C61.0077 61.5912 61.012 61.5542 61.012 61.5162V31.8634C61.012 31.8258 61.0078 31.7889 60.9997 31.7532ZM31.5802 61.5162H60.012V61.5086M31.5802 61.5162L39.7135 52.6714L39.7883 52.5966C39.7693 52.6261 39.747 52.6539 39.7215 52.6794L31.3904 61.0162M31.5802 61.5162L31.5878 61.5086M31.5802 61.5162L31.3904 61.0162M60.012 61.5086H60.4997V61.0162M60.012 61.5086V61.0162H60.4997M60.012 61.5086H31.5878M60.4997 61.0162H60.512V32.5706L60.4997 32.5828M60.4997 61.0162V32.5828M60.4997 32.5828V31.8903L60.012 32.378M60.4997 32.5828L60.012 33.0706V32.378M60.012 32.378V32.3635L51.6641 40.7128L51.5963 40.7806C51.6227 40.7628 51.6476 40.7424 51.6706 40.7193L60.012 32.378ZM31.5878 61.5086L32.0799 61.0162H31.3904M31.5878 61.5086H30.8983L31.3904 61.0162M50.3325 23.3869V40.6465L39.6514 51.3367H22.3959L30.5849 43.1449H41.3984C41.6005 43.1449 41.7833 43.0672 41.924 42.9266C42.0613 42.7892 42.1423 42.6055 42.1423 42.4011V31.5827L50.3325 23.3869ZM60.2373 31.4456C60.2092 31.464 60.1828 31.4855 60.1584 31.5099L51.8171 39.8526L60.2373 31.4456ZM60.512 62.0086H60.5992C60.5709 62.0136 60.5417 62.0162 60.512 62.0162H30.8733C30.8438 62.0162 30.8147 62.0136 30.7864 62.0086H30.8733H60.512ZM40.0603 52.3244V52.8244H40.2675L40.414 52.6779L40.0603 52.3244ZM51.8202 41.2638V41.0567H51.3202L51.6738 41.4102L51.8202 41.2638ZM41.7516 51.3367L50.3325 42.7519V51.3367H41.7516ZM12.7174 41.6572L20.9055 33.4608H31.719C31.915 33.4608 32.1012 33.3873 32.2445 33.244L31.8909 32.8904L32.2445 33.244C32.3876 33.1009 32.4628 32.9155 32.4628 32.7169V21.9032L40.6546 13.7087V30.9686L29.972 41.6572H12.7174ZM20.2895 31.9731H3.03862L30.9751 4.03068V21.2921L20.2895 31.9731ZM30.9751 31.9731H22.3927L30.9751 23.3867V31.9731ZM32.0723 41.6557L40.6546 33.0708V41.6557H32.0723Z" fill="white" stroke="white" stroke-linejoin="round"/>
</svg>
