<svg width="64" height="62" viewBox="0 0 64 62" fill="none" xmlns="http://www.w3.org/2000/svg">
<path d="M29.5234 30.207L1.73206 1.97698L1.72876 1.97362L1.72877 1.97361C1.6296 1.87095 1.54637 1.73613 1.51509 1.56992C1.48378 1.40356 1.51233 1.24724 1.56813 1.11472C1.62381 0.982462 1.71567 0.852425 1.85696 0.758232C1.99844 0.66391 2.15444 0.628906 2.29949 0.628906H32.586C32.8058 0.628906 33.0006 0.714418 33.1491 0.862927L33.1519 0.865706L33.1519 0.865717L62.2686 30.4438L62.2689 30.4441C62.3696 30.5465 62.4545 30.6817 62.4866 30.8491C62.5188 31.0166 62.4899 31.1736 62.4341 31.3061C62.3793 31.4371 62.2886 31.5679 62.1465 31.6629C62.0036 31.7583 61.8471 31.7919 61.7043 31.7919H34.4788L62.2687 60.0235L62.2689 60.0237C62.3696 60.1262 62.4545 60.2614 62.4866 60.4288C62.5188 60.5962 62.4899 60.7533 62.4341 60.8857C62.3793 61.0168 62.2886 61.1476 62.1465 61.2425C62.0036 61.338 61.847 61.3715 61.7043 61.3715H31.4163C31.2059 61.3715 31.005 61.293 30.8495 61.1338C30.8492 61.1335 30.8488 61.1331 30.8485 61.1328L1.73206 31.5566L1.73181 31.5564C1.63245 31.4553 1.54652 31.3208 1.51374 31.1525C1.48101 30.9846 1.50976 30.8265 1.56672 30.6924C1.62197 30.5606 1.71359 30.4294 1.85642 30.3346C1.99934 30.2397 2.15654 30.2059 2.30177 30.207M29.5234 30.207H2.30177M29.5234 30.207L30.0156 30.707M2.30177 30.207C2.30299 30.207 2.30422 30.207 2.30544 30.207L2.29949 30.707V30.207H2.30177Z" fill="white" stroke="white"/>
</svg>
