<svg width="41" height="15" viewBox="0 0 41 15" fill="none" xmlns="http://www.w3.org/2000/svg">
<path d="M41 7.90515L41.8638 9.70899L43 9.1649L43 7.90515L41 7.90515ZM33.28 14.2215L33.28 16.2215L34.2233 16.2215L34.8233 15.4937L33.28 14.2215ZM31.233 14.2215L29.4221 13.3726L28.0867 16.2215L31.233 16.2215L31.233 14.2215ZM32.9876 10.9464L34.6836 12.0064L34.6998 11.9805L34.7151 11.9541L32.9876 10.9464ZM34.6252 8.60697L36.1303 9.92398L39.0327 6.60697L34.6252 6.60697L34.6252 8.60697ZM0.528482 8.60697L-1.47152 8.60697L-1.47152 10.607L0.528482 10.607L0.528482 8.60697ZM0.528482 6.1506L0.528482 4.1506L-1.47152 4.1506L-1.47152 6.1506L0.528482 6.1506ZM34.6252 6.1506L34.6252 8.1506L38.8631 8.1506L36.169 4.87919L34.6252 6.1506ZM32.9876 3.75273L34.7151 2.74498L34.6998 2.71861L34.6836 2.69273L32.9876 3.75273ZM31.233 0.536058L31.233 -1.46394L28.0435 -1.46394L29.4327 1.40718L31.233 0.536058ZM33.28 0.536058L34.8147 -0.746378L34.2151 -1.46394L33.28 -1.46394L33.28 0.536058ZM41 6.85242L43 6.85242L43 5.60853L41.8843 5.05854L41 6.85242ZM40.1362 6.10131C37.0546 7.57702 34.2606 9.8876 31.7367 12.9494L34.8233 15.4937C37.0561 12.7849 39.4089 10.8846 41.8638 9.70899L40.1362 6.10131ZM33.28 12.2215L31.233 12.2215L31.233 16.2215L33.28 16.2215L33.28 12.2215ZM33.0439 15.0704C33.6027 13.8783 34.1501 12.8599 34.6836 12.0064L31.2916 9.88636C30.6553 10.9044 30.033 12.0693 29.4221 13.3726L33.0439 15.0704ZM34.7151 11.9541C35.2152 11.0969 35.6892 10.4281 36.1303 9.92398L33.12 7.28996C32.4694 8.03352 31.8517 8.92434 31.26 9.93862L34.7151 11.9541ZM34.6252 6.60697L0.528482 6.60697L0.528482 10.607L34.6252 10.607L34.6252 6.60697ZM2.52848 8.60697L2.52848 6.1506L-1.47152 6.1506L-1.47152 8.60697L2.52848 8.60697ZM0.528482 8.1506L34.6252 8.1506L34.6252 4.1506L0.528482 4.1506L0.528482 8.1506ZM36.169 4.87919C35.7063 4.31732 35.2202 3.61086 34.7151 2.74498L31.26 4.76047C31.8466 5.76611 32.4523 6.65823 33.0813 7.42202L36.169 4.87919ZM34.6836 2.69273C34.144 1.82939 33.5933 0.822155 33.0333 -0.335064L29.4327 1.40718C30.0425 2.66733 30.6615 3.80455 31.2916 4.81272L34.6836 2.69273ZM31.233 2.53606L33.28 2.53606L33.28 -1.46394L31.233 -1.46394L31.233 2.53606ZM31.7453 1.81849C34.267 4.83633 37.0521 7.1361 40.1157 8.6463L41.8843 5.05854C39.4113 3.83945 37.0497 1.92831 34.8147 -0.746378L31.7453 1.81849ZM39 6.85242L39 7.90515L43 7.90515L43 6.85242L39 6.85242Z" fill="white"/>
</svg>
