<svg width="273" height="51" viewBox="0 0 273 51" fill="none" xmlns="http://www.w3.org/2000/svg">
<path d="M32.2721 41V43H34.2721V41H32.2721ZM32.2721 35.327H34.2721V33.327H32.2721V35.327ZM7.24061 35.327H5.24061V37.327H7.24061V35.327ZM7.24061 24.0979V22.0979H5.24061V24.0979H7.24061ZM31.3949 24.0979V26.0979H33.3949V24.0979H31.3949ZM31.3949 18.4833H33.3949V16.4833H31.3949V18.4833ZM7.24061 18.4833H5.24061V20.4833H7.24061V18.4833ZM7.24061 7.48818V5.48818H5.24061V7.48818H7.24061ZM32.2721 7.48818V9.48818H34.2721V7.48818H32.2721ZM32.2721 1.81515H34.2721V-0.184849H32.2721V1.81515ZM0.924242 1.81515V-0.184849H-1.07576V1.81515H0.924242ZM0.924242 41H-1.07576V43H0.924242V41ZM34.2721 41V35.327H30.2721V41H34.2721ZM32.2721 33.327H7.24061V37.327H32.2721V33.327ZM9.24061 35.327V24.0979H5.24061V35.327H9.24061ZM7.24061 26.0979H31.3949V22.0979H7.24061V26.0979ZM33.3949 24.0979V18.4833H29.3949V24.0979H33.3949ZM31.3949 16.4833H7.24061V20.4833H31.3949V16.4833ZM9.24061 18.4833V7.48818H5.24061V18.4833H9.24061ZM7.24061 9.48818H32.2721V5.48818H7.24061V9.48818ZM34.2721 7.48818V1.81515H30.2721V7.48818H34.2721ZM32.2721 -0.184849H0.924242V3.81515H32.2721V-0.184849ZM-1.07576 1.81515V41H2.92424V1.81515H-1.07576ZM0.924242 43H32.2721V39H0.924242V43ZM44.9117 41V43H45.831L46.4297 42.3022L44.9117 41ZM54.4447 29.8879V27.8879H53.5254L52.9268 28.5856L54.4447 29.8879ZM54.8541 29.8879L56.3642 28.5765L55.7662 27.8879H54.8541V29.8879ZM64.5041 41L62.9941 42.3114L63.5921 43H64.5041V41ZM72.1656 41V43H76.5331L73.6798 39.6934L72.1656 41ZM59.6499 26.4958H57.6499V27.2394L58.1357 27.8024L59.6499 26.4958ZM59.6499 26.1448L58.1489 24.823L57.6499 25.3897V26.1448H59.6499ZM72.1656 11.933L73.6666 13.2548L76.592 9.93303H72.1656V11.933ZM64.5626 11.933V9.93303H63.6496L63.0515 10.6229L64.5626 11.933ZM55.0296 22.9282V24.9282H55.9426L56.5407 24.2383L55.0296 22.9282ZM54.6787 22.9282L53.1755 24.2475L53.773 24.9282H54.6787V22.9282ZM45.0287 11.933L46.5318 10.6138L45.9344 9.93303H45.0287V11.933ZM37.3672 11.933V9.93303H32.9647L35.8609 13.2487L37.3672 11.933ZM49.8829 26.2618H51.8829V25.5113L51.3892 24.9461L49.8829 26.2618ZM49.8829 26.6127L51.3919 27.9254L51.8829 27.3609V26.6127H49.8829ZM37.3672 41L35.8582 39.6873L32.9765 43H37.3672V41ZM46.4297 42.3022L55.9627 31.1901L52.9268 28.5856L43.3938 39.6978L46.4297 42.3022ZM54.4447 31.8879H54.8541V27.8879H54.4447V31.8879ZM53.3441 31.1993L62.9941 42.3114L66.0142 39.6886L56.3642 28.5765L53.3441 31.1993ZM64.5041 43H72.1656V39H64.5041V43ZM73.6798 39.6934L61.1641 25.1892L58.1357 27.8024L70.6515 42.3066L73.6798 39.6934ZM61.6499 26.4958V26.1448H57.6499V26.4958H61.6499ZM61.1508 27.4667L73.6666 13.2548L70.6647 10.6112L58.1489 24.823L61.1508 27.4667ZM72.1656 9.93303H64.5626V13.933H72.1656V9.93303ZM63.0515 10.6229L53.5185 21.618L56.5407 24.2383L66.0737 13.2432L63.0515 10.6229ZM55.0296 20.9282H54.6787V24.9282H55.0296V20.9282ZM56.1818 21.6089L46.5318 10.6138L43.5255 13.2523L53.1755 24.2475L56.1818 21.6089ZM45.0287 9.93303H37.3672V13.933H45.0287V9.93303ZM35.8609 13.2487L48.3766 27.5775L51.3892 24.9461L38.8735 10.6173L35.8609 13.2487ZM47.8829 26.2618V26.6127H51.8829V26.2618H47.8829ZM48.374 25.3001L35.8582 39.6873L38.8761 42.3127L51.3919 27.9254L48.374 25.3001ZM37.3672 43H44.9117V39H37.3672V43ZM84.4817 50.9424V52.9424H86.4817V50.9424H84.4817ZM84.4817 32.8121V30.8121H82.4817V32.8121H84.4817ZM84.7157 32.8121L86.669 32.3828L86.3238 30.8121H84.7157V32.8121ZM84.4817 20.0039V22.0039H86.0937L86.4361 20.4288L84.4817 20.0039ZM83.9554 20.0039H81.9554V22.0039H83.9554V20.0039ZM83.9554 11.933H85.9554V9.93303H83.9554V11.933ZM78.1654 11.933V9.93303H76.1654V11.933H78.1654ZM78.1654 50.9424H76.1654V52.9424H78.1654V50.9424ZM86.4817 50.9424V32.8121H82.4817V50.9424H86.4817ZM84.4817 34.8121H84.7157V30.8121H84.4817V34.8121ZM82.7623 33.2414C83.439 36.3204 85.0223 38.9458 87.456 40.7887C89.8819 42.6257 93.0182 43.5848 96.6466 43.5848V39.5848C93.7246 39.5848 91.4804 38.8187 89.8708 37.5998C88.269 36.3869 87.1621 34.626 86.669 32.3828L82.7623 33.2414ZM96.6466 43.5848C101.651 43.5848 105.737 41.8897 108.552 38.7539C111.341 35.6481 112.683 31.3522 112.683 26.4958H108.683C108.683 30.646 107.539 33.8947 105.576 36.0817C103.639 38.2388 100.708 39.5848 96.6466 39.5848V43.5848ZM112.683 26.4958C112.683 21.6282 111.306 17.3205 108.499 14.2056C105.667 11.0632 101.571 9.34818 96.5881 9.34818V13.3482C100.612 13.3482 103.563 14.7036 105.527 16.8833C107.516 19.0906 108.683 22.3567 108.683 26.4958H112.683ZM96.5881 9.34818C92.8534 9.34818 89.6715 10.2436 87.2215 12.0479C84.7536 13.8655 83.2013 16.4791 82.5274 19.5791L86.4361 20.4288C86.9319 18.1481 88.0114 16.4339 89.5935 15.2687C91.1936 14.0903 93.4801 13.3482 96.5881 13.3482V9.34818ZM84.4817 18.0039H83.9554V22.0039H84.4817V18.0039ZM85.9554 20.0039V11.933H81.9554V20.0039H85.9554ZM83.9554 9.93303H78.1654V13.933H83.9554V9.93303ZM76.1654 11.933V50.9424H80.1654V11.933H76.1654ZM78.1654 52.9424H84.4817V48.9424H78.1654V52.9424ZM86.4817 26.9636V26.4373H82.4817V26.9636H86.4817ZM86.4817 26.4373C86.4817 23.6976 87.2636 21.9876 88.4424 20.9292C89.6597 19.8362 91.6316 19.1382 94.5996 19.1382V15.1382C91.0758 15.1382 87.9888 15.9607 85.7701 17.9529C83.5128 19.9795 82.4817 22.919 82.4817 26.4373H86.4817ZM94.5996 19.1382C97.4468 19.1382 99.3048 19.6971 100.452 20.6944C101.54 21.6406 102.367 23.3196 102.367 26.4958H106.367C106.367 22.6537 105.351 19.654 103.076 17.6759C100.86 15.749 97.8348 15.1382 94.5996 15.1382V19.1382ZM102.367 26.4958C102.367 29.6467 101.552 31.3239 100.458 32.2756C99.3054 33.2789 97.4198 33.8533 94.4826 33.8533V37.8533C97.8034 37.8533 100.86 37.2288 103.084 35.2932C105.368 33.3061 106.367 30.3045 106.367 26.4958H102.367ZM94.4826 33.8533C91.6645 33.8533 89.6959 33.1858 88.4579 32.1261C87.2714 31.1105 86.4817 29.4996 86.4817 26.9636H82.4817C82.4817 30.3931 83.5928 33.2271 85.8569 35.165C88.0695 37.0588 91.1013 37.8533 94.4826 37.8533V33.8533ZM124.302 41V43H126.302V41H124.302ZM124.302 1.81515H126.302V-0.184849H124.302V1.81515ZM117.985 1.81515V-0.184849H115.985V1.81515H117.985ZM117.985 41H115.985V43H117.985V41ZM126.302 41V1.81515H122.302V41H126.302ZM124.302 -0.184849H117.985V3.81515H124.302V-0.184849ZM115.985 1.81515V41H119.985V1.81515H115.985ZM117.985 43H124.302V39H117.985V43ZM147.93 43.5848C153.208 43.5848 157.773 41.9102 161.037 38.8564C164.312 35.7926 166.13 31.475 166.13 26.4958H162.13C162.13 30.4647 160.703 33.6917 158.304 35.9354C155.896 38.1891 152.361 39.5848 147.93 39.5848V43.5848ZM166.13 26.4958C166.13 21.4644 164.316 17.1298 161.037 14.0621C157.77 11.0053 153.203 9.34818 147.93 9.34818V13.3482C152.366 13.3482 155.899 14.7323 158.304 16.983C160.698 19.2227 162.13 22.4619 162.13 26.4958H166.13ZM147.93 9.34818C142.684 9.34818 138.131 11.0071 134.872 14.0638C131.602 17.1311 129.788 21.4646 129.788 26.4958H133.788C133.788 22.4617 135.22 19.2214 137.609 16.9813C140.008 14.7305 143.526 13.3482 147.93 13.3482V9.34818ZM129.788 26.4958C129.788 31.4747 131.606 35.7913 134.872 38.8546C138.128 41.9083 142.679 43.5848 147.93 43.5848V39.5848C143.531 39.5848 140.011 38.1909 137.609 35.9371C135.216 33.693 133.788 30.465 133.788 26.4958H129.788ZM147.93 33.9703C144.703 33.9703 142.827 33.2022 141.738 32.1184C140.652 31.0372 139.988 29.2817 139.988 26.4958H135.988C135.988 29.8507 136.785 32.8325 138.916 34.9533C141.044 37.0716 144.139 37.9703 147.93 37.9703V33.9703ZM139.988 26.4958C139.988 23.676 140.654 21.8863 141.748 20.783C142.838 19.6826 144.711 18.9042 147.93 18.9042V14.9042C144.131 14.9042 141.032 15.822 138.906 17.9674C136.783 20.11 135.988 23.1161 135.988 26.4958H139.988ZM147.93 18.9042C151.182 18.9042 153.07 19.6847 154.167 20.7862C155.264 21.8888 155.931 23.676 155.931 26.4958H159.931C159.931 23.1161 159.135 20.1076 157.002 17.9642C154.867 15.8199 151.754 14.9042 147.93 14.9042V18.9042ZM155.931 26.4958C155.931 29.2816 155.267 31.0348 154.176 32.1152C153.082 33.2002 151.191 33.9703 147.93 33.9703V37.9703C151.746 37.9703 154.856 37.0736 156.992 34.9565C159.133 32.8349 159.931 29.8508 159.931 26.4958H155.931ZM177.955 41V43H179.955V41H177.955ZM191.055 25.3845H189.055V27.3845H191.055V25.3845ZM197.313 25.3845V27.3845H199.313V25.3845H197.313ZM177.838 19.77V21.77H179.498L179.803 20.1386L177.838 19.77ZM177.428 19.77H175.428V21.77H177.428V19.77ZM177.428 11.933H179.428V9.93303H177.428V11.933ZM171.638 11.933V9.93303H169.638V11.933H171.638ZM171.638 41H169.638V43H171.638V41ZM179.955 41V24.6827H175.955V41H179.955ZM179.955 24.6827C179.955 22.2829 180.437 20.8597 181.126 20.0465C181.755 19.3031 182.853 18.7288 184.973 18.7288V14.7288C182.122 14.7288 179.71 15.5289 178.073 17.4612C176.496 19.3236 175.955 21.8774 175.955 24.6827H179.955ZM184.973 18.7288C186.888 18.7288 187.767 19.161 188.207 19.6113C188.656 20.0705 189.055 20.9615 189.055 22.8112H193.055C193.055 20.5085 192.577 18.3583 191.067 16.8144C189.548 15.2615 187.386 14.7288 184.973 14.7288V18.7288ZM189.055 22.8112V25.3845H193.055V22.8112H189.055ZM191.055 27.3845H197.313V23.3845H191.055V27.3845ZM199.313 25.3845V21.583H195.313V25.3845H199.313ZM199.313 21.583C199.313 18.5155 198.516 15.4598 196.598 13.132C194.631 10.7458 191.667 9.34818 187.839 9.34818V13.3482C190.619 13.3482 192.392 14.3192 193.511 15.6761C194.677 17.0913 195.313 19.153 195.313 21.583H199.313ZM187.839 9.34818C184.41 9.34818 181.627 10.4368 179.572 12.3359C177.544 14.2113 176.371 16.7408 175.872 19.4014L179.803 20.1386C180.182 18.1204 181.027 16.439 182.288 15.2731C183.523 14.1311 185.302 13.3482 187.839 13.3482V9.34818ZM177.838 17.77H177.428V21.77H177.838V17.77ZM179.428 19.77V11.933H175.428V19.77H179.428ZM177.428 9.93303H171.638V13.933H177.428V9.93303ZM169.638 11.933V41H173.638V11.933H169.638ZM171.638 43H177.955V39H171.638V43ZM233.564 30.5897H235.564V28.5897H233.564V30.5897ZM227.248 30.5897V28.5897H225.248V30.5897H227.248ZM208.942 27.8994V25.8994H206.857L206.944 27.9827L208.942 27.8994ZM233.623 27.8994V29.8994H235.262L235.584 28.2916L233.623 27.8994ZM227.891 24.3903V26.3903H229.891V24.3903H227.891ZM209.001 24.3903L207.005 24.2558L206.861 26.3903H209.001V24.3903ZM218.826 43.5848C223.459 43.5848 227.577 42.445 230.597 40.3076C233.656 38.1421 235.564 34.9492 235.564 31.1161H231.564C231.564 33.4823 230.431 35.5238 228.285 37.0428C226.1 38.59 222.849 39.5848 218.826 39.5848V43.5848ZM235.564 31.1161V30.5897H231.564V31.1161H235.564ZM233.564 28.5897H227.248V32.5897H233.564V28.5897ZM225.248 30.5897V31.0576H229.248V30.5897H225.248ZM225.248 31.0576C225.248 32.2183 224.872 32.905 224.119 33.4083C223.216 34.012 221.54 34.4967 218.651 34.4967V38.4967C221.843 38.4967 224.467 37.9871 226.341 36.7339C228.366 35.3803 229.248 33.3474 229.248 31.0576H225.248ZM218.651 34.4967C215.544 34.4967 213.762 33.8036 212.724 32.8386C211.7 31.8872 211.045 30.3404 210.94 27.8161L206.944 27.9827C207.073 31.0729 207.909 33.8248 210 35.7683C212.076 37.6983 215.031 38.4967 218.651 38.4967V34.4967ZM208.942 29.8994H233.623V25.8994H208.942V29.8994ZM235.584 28.2916C235.793 27.2446 235.857 26.2858 235.857 25.1506H231.857C231.857 26.1208 231.803 26.7997 231.661 27.5072L235.584 28.2916ZM235.857 25.1506C235.857 20.2419 234.132 16.2145 230.983 13.4377C227.867 10.6898 223.565 9.34818 218.709 9.34818V13.3482C222.86 13.3482 226.131 14.4922 228.337 16.4377C230.511 18.3543 231.857 21.2281 231.857 25.1506H235.857ZM218.709 9.34818C213.538 9.34818 209.091 11.0152 205.926 14.0874C202.756 17.1643 201.035 21.4931 201.035 26.4958H205.035C205.035 22.4332 206.414 19.1882 208.712 16.9577C211.015 14.7224 214.405 13.3482 218.709 13.3482V9.34818ZM201.035 26.4958C201.035 31.7959 202.757 36.1405 205.995 39.1467C209.212 42.1332 213.694 43.5848 218.826 43.5848V39.5848C214.425 39.5848 211.012 38.3462 208.716 36.2153C206.442 34.104 205.035 30.9041 205.035 26.4958H201.035ZM218.592 18.3194C221.466 18.3194 223.236 18.9238 224.272 19.8032C225.243 20.6274 225.891 21.9723 225.891 24.2733H229.891C229.891 21.1937 228.99 18.5616 226.861 16.754C224.797 15.0016 221.917 14.3194 218.592 14.3194V18.3194ZM225.891 24.2733V24.3903H229.891V24.2733H225.891ZM227.891 22.3903H209.001V26.3903H227.891V22.3903ZM210.996 24.5248C211.15 22.2427 211.815 20.8052 212.838 19.9028C213.885 18.98 215.64 18.3194 218.592 18.3194V14.3194C215.111 14.3194 212.246 15.0916 210.192 16.903C208.116 18.7348 207.202 21.3328 207.005 24.2558L210.996 24.5248ZM265.602 41L263.798 41.8638L264.342 43H265.602V41ZM259.285 33.28H257.285V34.2233L258.013 34.8233L259.285 33.28ZM259.285 31.233L260.134 29.4221L257.285 28.0867V31.233H259.285ZM262.56 32.9876L261.5 34.6836L261.526 34.6998L261.553 34.7151L262.56 32.9876ZM264.9 34.6252L263.583 36.1303L266.9 39.0327V34.6252H264.9ZM264.9 0.528483V-1.47152H262.9V0.528483H264.9ZM267.356 0.528483H269.356V-1.47152H267.356V0.528483ZM267.356 34.6252H265.356V38.8631L268.627 36.169L267.356 34.6252ZM269.754 32.9876L270.762 34.7151L270.788 34.6998L270.814 34.6836L269.754 32.9876ZM272.971 31.233H274.971V28.0435L272.1 29.4327L272.971 31.233ZM272.971 33.28L274.253 34.8147L274.971 34.2151V33.28H272.971ZM266.654 41V43H267.898L268.448 41.8843L266.654 41ZM267.405 40.1362C265.93 37.0546 263.619 34.2606 260.557 31.7367L258.013 34.8233C260.722 37.0561 262.622 39.4089 263.798 41.8638L267.405 40.1362ZM261.285 33.28V31.233H257.285V33.28H261.285ZM258.436 33.0439C259.628 33.6027 260.647 34.1501 261.5 34.6836L263.62 31.2916C262.602 30.6553 261.437 30.033 260.134 29.4221L258.436 33.0439ZM261.553 34.7151C262.41 35.2152 263.079 35.6892 263.583 36.1303L266.217 33.12C265.473 32.4694 264.582 31.8517 263.568 31.26L261.553 34.7151ZM266.9 34.6252V0.528483H262.9V34.6252H266.9ZM264.9 2.52848H267.356V-1.47152H264.9V2.52848ZM265.356 0.528483V34.6252H269.356V0.528483H265.356ZM268.627 36.169C269.189 35.7063 269.896 35.2202 270.762 34.7151L268.746 31.26C267.741 31.8466 266.848 32.4523 266.085 33.0813L268.627 36.169ZM270.814 34.6836C271.677 34.144 272.685 33.5933 273.842 33.0333L272.1 29.4327C270.839 30.0425 269.702 30.6615 268.694 31.2916L270.814 34.6836ZM270.971 31.233V33.28H274.971V31.233H270.971ZM271.688 31.7453C268.67 34.267 266.371 37.0521 264.86 40.1157L268.448 41.8843C269.667 39.4113 271.578 37.0497 274.253 34.8147L271.688 31.7453ZM266.654 39H265.602V43H266.654V39Z" fill="white"/>
</svg>
